<?xml version="1.0" encoding="UTF-8"?><svg id="Layer_1" xmlns="http://www.w3.org/2000/svg" viewBox="0 0 3632.99 865.73"><path d="M1.56,165.62C5.18,74.67,82.43,3.45,171.06,0h460.07c85.71,3.84,159.92,69.42,168.74,157.26.3,2.83-.02,5.66-.02,8.37v469.53c0,85.44-82.47,164.84-164.81,164.84H166.38c-84.8-.09-167.78-85.12-164.77-168M0,170.31,575.41,141.69l-20.04,16.14c-1.84,1.48-3.09,3.43-2.37,5.74.42,1.35,1.74,3.3,3.91,3.68,20.14,3.49,63.93,11.09,84.35,14.7,4.48.9,7.88-2.55,6.88-6.95,0,0-24.93-86.68-24.93-86.68-.6-2.07-2.77-3.11-4.21-3.09s-3.26.85-4.22,2.46l-18.91,31.69C289.14-75.06-65.64,245.33,116.49,560.59-29.48,264.55,293.14-40.7,575.41,141.69ZM305.64,570.71l137.46-165.62c3.28-3.95,3.41-8.02.15-11.93-32.57-39.01-104.2-125.28-136.3-163.32-9.61-11.47-22.2-18.76-37.54-18.78l-74.83-.12c-6.41-.41-14.81,3.71-9.57,10.47,0,0,148.87,178.65,148.87,178.65-32.8,39.41-115.78,138.68-149.69,179.11-2.11,4.58,1.69,8.3,5.96,8.88,0,0,80.08.02,80.08.02,14.09,0,26.31-6.38,35.42-17.36ZM472.44,387.24l138.92-166.84c1.62-1.94,1.03-4.86-.03-6.23-.83-1.08-2.66-3.12-4.81-3.12l-86.13.19c-15.32.03-28.22,7.7-37.83,19.19l-70.5,84.27,60.37,72.54ZM159.21,615.49c-9.19-1.65-16.2-4.47-19.82.11-1.36,1.72-.98,3.73-.42,5.7l8.77,30.96,16.1,54.98c.6,2.06,2.98,3.5,4.45,3.49,1.73,0,3.3-1.22,4.28-2.9l19.52-33.45c254.43,175.75,585.62-26.69,535.68-333.79.19-14.21-31.11-115.34-44.14-108.55-1.94,1.03-3.19,3.61-2.02,6.1,145.28,300.73-185.35,608.38-468.84,415.12l20.26-16.24c1.66-1.33,2.89-3.15,2.2-4.85-.57-1.41-1.62-3.45-3.56-3.79-17.96-3.13-54.66-9.66-72.46-12.89ZM521.26,587.93l84.06.34c3.35.01,9.26-4.76,6.46-8.11-29.79-35.69-109.71-131.01-140.55-167.85l-57.62,69.12c-1.11,1.33-1.69,2.59-.88,4.02,4.85,6.06,67.09,79.62,73.97,87.77,8.37,9.91,21.56,14.65,34.56,14.7Z" fill="#0a141c"/><path d="M305.64,570.71c-9.11,10.98-21.33,17.36-35.42,17.36l-80.08-.02c-4.29-.57-8.05-4.31-5.96-8.88,34.21-40.74,116.58-139.32,149.69-179.11l-148.87-178.65c-5.18-6.6,3.12-10.98,9.57-10.47,0,0,74.83.12,74.83.12,15.34.02,27.93,7.31,37.54,18.78,31.89,37.78,104.05,124.59,136.3,163.32,3.26,3.91,3.13,7.98-.15,11.93l-137.46,165.62Z" fill="#f8f8f9"/><path d="M159.21,615.49c17.76,3.23,54.54,9.76,72.46,12.89,1.94.34,2.99,2.38,3.56,3.79.69,1.7-.54,3.52-2.2,4.85l-20.26,16.24c283.72,193.31,614.06-114.59,468.84-415.13-1.17-2.48.09-5.06,2.02-6.09,13.26-6.76,44.48,95.39,44.14,108.56,49.96,307.21-281.44,509.5-535.68,333.79l-19.52,33.45c-.98,1.68-2.55,2.89-4.28,2.9-1.47,0-3.85-1.43-4.45-3.49l-16.1-54.98-8.77-30.96c-.56-1.97-.94-3.98.42-5.7,3.63-4.58,10.63-1.77,19.82-.11Z" fill="#f8f8f9"/><path d="M575.41,141.69C292.94-40.78-29.44,264.8,116.49,560.59-65.7,245.05,289.42-74.97,595.88,119.37l18.91-31.69c.96-1.6,2.72-2.44,4.22-2.46s3.61,1.02,4.21,3.09l24.93,86.68c1.01,4.42-2.42,7.84-6.88,6.95-20.53-3.66-64.11-11.18-84.35-14.7-2.17-.38-3.49-2.33-3.91-3.68-.73-2.31.53-4.26,2.37-5.74l20.04-16.14Z" fill="#1b8de7"/><path d="M472.44,387.24l-60.37-72.54,70.5-84.27c9.61-11.49,22.51-19.15,37.83-19.19l86.13-.19c2.15,0,3.98,2.04,4.81,3.12,1.06,1.38,1.64,4.29.03,6.23l-138.92,166.84Z" fill="#1b8de7"/><path d="M521.26,587.93c-13-.05-26.19-4.8-34.56-14.7-7.2-8.54-68.85-81.36-73.97-87.77-.81-1.43-.22-2.69.88-4.02l57.62-69.12c31.22,37.32,110.44,131.77,140.55,167.85,2.8,3.34-3.11,8.12-6.46,8.11l-84.06-.34Z" fill="#1b8de7"/><path d="M932.99,676.12l185.4-278.09-174.44-261.24,10.11-21.07h90.17l130.62,200.56,131.46-200.56h90.17l10.11,21.07-174.44,261.24,185.4,278.09-10.11,21.07h-90.17l-142.42-217.42-141.57,217.42h-90.17l-10.11-21.07Z" fill="#f8fafc"/><path d="M1498.44,564.04v-176.13c0-88.76,44.37-133.15,133.15-133.15h117.98c88.19,0,132.31,44.39,132.31,133.15v176.13c0,88.77-44.11,133.15-132.31,133.15h-117.98c-88.77,0-133.15-44.37-133.15-133.15ZM1597.03,572.47c0,25.85,12.92,38.76,38.76,38.76h108.71c25.83,0,38.76-12.92,38.76-38.76v-192.98c0-25.83-12.93-38.76-38.76-38.76h-108.71c-25.85,0-38.76,12.93-38.76,38.76v192.98Z" fill="#f8fafc"/><path d="M1998.15,550.56V73.58h98.6v487.08c0,36.53,18.54,56.19,55.62,58.99v85.11c-102.81,0-154.22-51.4-154.22-154.21Z" fill="#f8fafc"/><path d="M2357.14,697.19c-88.77,0-133.15-43.82-133.15-131.46s44.37-131.46,133.15-131.46h129.78v-54.78c0-25.83-12.93-38.76-38.76-38.76h-178.65v-53.09l43.82-32.87h139.89c88.2,0,132.31,44.39,132.31,133.15v309.27h-228.37ZM2322.59,572.47c0,25.85,12.92,38.76,38.76,38.76h125.56v-100.28h-125.56c-25.85,0-38.76,12.64-38.76,37.92v23.6Z" fill="#f8fafc"/><path d="M2705.18,697.19v-387.65c20.23-36.51,58.99-54.78,116.29-54.78h88.48l44.66,32.87v53.09h-110.4c-19.11,0-32.59,4.78-40.45,14.33v342.14h-98.6Z" fill="#f8fafc"/><path d="M3037.19,178.08v-100.28h103.65v100.28h-103.65ZM3039.72,697.19V254.77h98.6v442.42h-98.6Z" fill="#f8fafc"/><path d="M3257.98,564.04v-176.13c0-88.76,44.37-133.15,133.15-133.15h241.86v610.96h-98.6v-168.54h-143.26c-88.77,0-133.15-44.37-133.15-133.15ZM3356.58,572.47c0,25.85,12.92,38.76,38.76,38.76h139.05v-270.51h-139.05c-25.85,0-38.76,12.93-38.76,38.76v192.98Z" fill="#f8fafc"/></svg>