<?xml version="1.0" encoding="UTF-8"?><svg id="Layer_1" xmlns="http://www.w3.org/2000/svg" viewBox="0 0 4096 4096"><path d="M8,848C26.53,382.29,422.03,17.68,875.84,0h2355.57c438.81,19.64,818.77,355.41,863.94,805.16,1.51,14.49-.1,28.97-.1,42.84v2404c0,437.46-422.25,844-843.85,844H851.84c-434.19-.44-859.02-435.84-843.64-860.14M0,872,2946.12,725.47l-102.63,82.65c-9.41,7.58-15.84,17.56-12.11,29.4,2.17,6.91,8.93,16.91,20.04,18.83,103.13,17.88,327.3,56.77,431.88,75.25,22.91,4.61,40.32-13.04,35.22-35.61,0,0-127.64-443.81-127.64-443.81-3.05-10.6-14.16-15.92-21.55-15.83-7.68.1-16.7,4.37-21.6,12.57l-96.83,162.23C1480.37-384.28-336.07,1256.11,596.41,2870.22-150.92,1354.47,1500.87-208.38,2946.12,725.47ZM1564.89,2922.04l703.79-847.98c16.78-20.22,17.45-41.05.76-61.09-166.75-199.75-533.49-641.45-697.88-836.19-49.22-58.74-113.67-96.04-192.23-96.16l-383.14-.6c-32.81-2.09-75.82,19.02-49,53.62,0,0,762.23,914.7,762.23,914.7-167.91,201.77-592.8,710.04-766.42,917.03-10.79,23.48,8.66,42.51,30.52,45.45,0,0,410.01.09,410.01.09,72.12.02,134.69-32.65,181.35-88.87ZM2418.89,1982.67l711.29-854.21c8.27-9.93,5.27-24.87-.15-31.92-4.25-5.52-13.61-15.99-24.63-15.96l-440.99.98c-78.45.18-144.46,39.4-193.69,98.24l-360.94,431.45,309.1,371.42ZM815.14,3151.31c-47.08-8.47-82.93-22.88-101.49.57-6.97,8.8-5.02,19.08-2.16,29.16l44.9,158.51,82.44,281.52c3.09,10.55,15.28,17.91,22.8,17.87,8.84-.05,16.88-6.22,21.91-14.85l99.93-171.25c1302.7,899.86,2998.35-136.63,2742.69-1709.01.95-72.73-159.27-590.56-225.99-555.79-9.92,5.29-16.34,18.48-10.35,31.21,743.82,1539.75-949.01,3114.88-2400.47,2125.43l103.73-83.14c8.48-6.8,14.8-16.12,11.27-24.84-2.92-7.21-8.28-17.65-18.22-19.4-91.95-16.05-279.88-49.43-371-66ZM2668.85,3010.18l430.37,1.72c17.16.07,47.42-24.38,33.1-41.5-152.52-182.75-561.74-670.78-719.63-859.38l-295,353.91c-5.68,6.81-8.67,13.26-4.53,20.56,24.81,31.05,343.51,407.65,378.75,449.4,42.85,50.71,110.38,75.02,176.94,75.28Z" fill="#0a141c"/><path d="M1564.89,2922.04c-46.66,56.22-109.23,88.89-181.35,88.87l-410.01-.09c-21.98-2.91-41.23-22.09-30.51-45.45,175.15-208.61,596.89-713.3,766.42-917.03l-762.23-914.7c-26.54-33.77,15.99-56.21,49-53.62,0,0,383.13.6,383.13.6,78.56.12,143.01,37.42,192.23,96.16,163.27,193.44,532.72,637.91,697.88,836.2,16.68,20.03,16.01,40.87-.77,61.09l-703.79,847.98Z" fill="#f8f8f9"/><path d="M815.14,3151.31c90.95,16.55,279.22,49.96,371,66,9.93,1.75,15.29,12.19,18.21,19.4,3.53,8.72-2.78,18.04-11.27,24.84l-103.73,83.14c1452.64,989.77,3144-586.72,2400.46-2125.46-5.98-12.71.44-25.9,10.36-31.18,67.87-34.59,227.72,488.39,226,555.81,255.81,1572.93-1440.97,2608.64-2742.7,1708.98l-99.93,171.25c-5.03,8.62-13.07,14.8-21.91,14.85-7.52.04-19.71-7.32-22.8-17.87l-82.44-281.52-44.9-158.51c-2.86-10.08-4.81-20.36,2.16-29.16,18.56-23.45,54.41-9.04,101.49-.57Z" fill="#f8f8f9"/><path d="M2946.12,725.47C1499.83-208.81-150.73,1355.75,596.41,2870.22-336.38,1254.63,1481.83-383.85,3050.9,611.16l96.83-162.23c4.89-8.2,13.92-12.48,21.6-12.57,7.39-.09,18.5,5.22,21.55,15.83l127.64,443.81c5.18,22.63-12.39,40.15-35.22,35.61-105.1-18.74-328.26-57.24-431.88-75.25-11.11-1.92-17.86-11.93-20.04-18.83-3.72-11.84,2.71-21.82,12.11-29.4l102.63-82.65Z" fill="#1b8de7"/><path d="M2418.89,1982.67l-309.1-371.42,360.94-431.45c49.23-58.84,115.23-98.07,193.69-98.24l440.99-.98c11.02-.02,20.38,10.44,24.63,15.96,5.42,7.05,8.42,21.99.15,31.92l-711.29,854.21Z" fill="#1b8de7"/><path d="M2668.85,3010.18c-66.56-.27-134.09-24.57-176.94-75.28-36.87-43.7-352.51-416.56-378.75-449.4-4.14-7.31-1.15-13.75,4.53-20.56l295-353.91c159.85,191.06,565.44,674.66,719.63,859.38,14.32,17.12-15.93,41.57-33.09,41.5l-430.37-1.72Z" fill="#1b8de7"/></svg>